<?xml version="1.0" encoding="UTF-8"?>
<svg id="Layer_2" data-name="Layer 2" xmlns="http://www.w3.org/2000/svg" viewBox="0 0 958.65 127.09">
  <defs>
    <style>
      .cls-1 {
        fill: #498fcd;
      }

      .cls-2 {
        fill: #fefeff;
      }

      .cls-3 {
        fill: #fff;
      }

      .cls-4 {
        fill: #82abdb;
      }

      .cls-5 {
        fill: #feffff;
      }

      .cls-6 {
        fill: #488fcc;
      }
    </style>
  </defs>
  <g id="Layer_2-2" data-name="Layer 2">
    <g id="_1iacS3.tif" data-name="1iacS3.tif">
      <g>
        <path class="cls-6" d="M266.5,126.69h-16.82c-25.74-4.86-42.72-21.84-41.59-48.22.79-18.44,11.66-34.66,29.48-40.85,16.48-5.72,34.69-4.66,50.39,2.88,14.47,6.95,22.1,21.34,23.05,36.87,1.67,27.18-17.93,47.47-44.51,49.31Z"/>
        <path class="cls-4" d="M519.45,126.03v1.06s-15.97,0-15.97,0l-.42-1.06c.1-.77.31-1.89.87-1.98,1.51-.25,13.47-.29,14.11,0,.74.33,1.1,1.21,1.4,1.98Z"/>
        <path class="cls-6" d="M410.83,73.21l-.43,51.67h-34.47s0-53.33,0-53.33c-.32-3.77-1.76-7.03-4.1-8.79-2.88-2.17-6.41-2.89-10.06-1.87-6.25,1.75-9.33,7.5-9.83,13.9l-.22,50.09h-34.4s-.06-88.69-.06-88.69l32.12-.17.52,12.56c8.59-11.03,20.82-15.72,34.5-14.43,10,.95,18.73,5.32,23,15.27,8.6-10.72,19.2-15.82,32.2-15.48,18.83.49,28.72,12.47,29.49,31.11l.12,59.83h-34.57s-.04-53.31-.04-53.31c-.42-3.56-1.85-6.78-4.09-8.52-2.92-2.27-6.55-2.9-10.52-1.77-4.55,1.3-9.1,6.1-9.15,11.92Z"/>
        <polygon class="cls-6" points="958.65 124.11 920.28 124.51 902.4 88.96 889.24 101.43 889.19 124.52 854.42 124.55 854.37 1.91 889.24 1.85 889.31 64.71 914.87 35.42 956.72 35.71 925.2 66.71 958.65 124.11"/>
        <path class="cls-6" d="M519.45,126.03h-16.39c-9.84,0-18.97-6.81-22.44-14.76-4.2-9.6-2.39-20.63,5.03-27.59,4.06-3.82,9.5-5.9,14.84-7.1l31.08-6.96,11.91-4c.86-4.56-.97-9.27-5.36-10.61-8.48-2.59-21.41-.12-24.12,9.55l-32.59-3.05c2.39-16.15,14.14-24.42,30.34-26.41,14.47-1.78,28.88-1.54,43.23,1.3,12.59,2.5,21.69,13.17,21.81,25.89l.39,42.94c.06,6.77.9,12.78,4.47,19.53l-32.06.12c-2.49-2.98-2.97-6.4-3.99-10.69-7.63,7.35-16.49,11.84-26.13,11.84Z"/>
        <path class="cls-6" d="M750.39,119.21c-11.3-9.34-11.65-27.72-.44-36.87,12.04-9.84,39.12-8.91,56.66-17.58,1.45-2.47-.77-6.96-2.6-8.56-5.68-4.97-23.91-3.94-26.51,8.09l-32.72-3.53c1.82-12.72,10.89-22.34,23.55-24.87,16.54-3.3,33.36-3.56,49.87-.09,12.64,2.65,21.79,12.99,21.92,25.92l.48,45.73c.06,6.05,1.17,11.09,4.36,17l-31.95.12c-2.44-3.13-2.96-6.39-4.08-10.85-9.2,9.25-20.94,12.75-33.77,12.54-8.76-.15-17.33-.88-24.78-7.03Z"/>
        <path class="cls-6" d="M104.12,64.71c-3.72-4.6-10.26-4.82-15.16-2.67-4.55,2-7.41,7.41-7.46,13.14l-.47,49.7c-11.65.34-22.51.35-34.38,0l-.06-88.68,32.12-.17.44,14.25c8.06-11.13,19.3-16.39,32.72-16.38,16.25.01,29.14,11.16,29.27,27.83l.5,63.15c-11.75.35-22.81.33-34.64.01l.03-50.4c-.13-3.28-.56-6.88-2.91-9.78Z"/>
        <path class="cls-6" d="M628.96,65.57c-3.15,4.23-3.33,9.15-3.71,13.89l-.06,45.42-34.15-.02V36.06s31.47-.03,31.47-.03l.52,14.21c13.3-19.24,43.69-21.75,55.95-6.2,4.58,5.81,5.88,13.11,6.54,20.57v60.26s-34.4,0-34.4,0l-.06-52.12c-.58-3.83-1.56-7.75-4.95-10.04-5.13-3.46-13.19-2.47-17.15,2.85Z"/>
        <path class="cls-6" d="M209.62,60.56l-16.65.27-.02,64.05c-11.74.34-22.52.34-34.12,0V60.86s-12.67-.02-12.67-.02l-.17-24.75,12.86-.09c-.05-6.78.06-12.98,1.83-19.14C165.56-.21,183.25-1.05,200.36.57l16.41,1.56-3.71,20.37-10.34-.75c-3.13-.23-6.65,1.03-8.11,3.92-1.54,3.06-1.59,6.5-1.59,10.28l16.54.12.05,24.48Z"/>
        <polygon class="cls-6" points="34.2 124.82 0 125.11 0 36.08 34.16 36.08 34.2 124.82"/>
        <polygon class="cls-6" points="731.52 124.81 697.31 124.91 697.32 36.08 731.47 36.07 731.52 124.81"/>
        <polygon class="cls-1" points="34.23 25.32 .01 25.55 .02 2.15 34.1 2.13 34.23 25.32"/>
        <polygon class="cls-1" points="731.55 25.32 697.33 25.55 697.33 2.15 731.4 2.13 731.55 25.32"/>
        <path class="cls-3" d="M274.7,68.71c5.37,15.24.03,34.89-14.61,35.26-6.81.17-12.94-3.71-15.55-10.51-3.08-8.01-3.17-17.13-.17-25.17,2.47-6.62,8.38-10.71,14.87-10.88,7.04-.18,12.98,4.27,15.46,11.3Z"/>
        <path class="cls-5" d="M540.52,100.03c-4.49,6.51-13.13,9.1-20.36,7.57-4.63-.98-7.28-4.76-7.18-8.74s2.85-7.51,7.23-8.87l23.2-7.17c.62,6.37.66,12.05-2.9,17.2Z"/>
        <path class="cls-2" d="M787.8,107.45c-5.04.2-8.61-1.45-10.47-4.87-1.6-2.93-1.41-7.89,1.72-10.31,3.58-2.77,8.01-4.35,12.33-5.53l15.72-4.29c.03,5.19.45,10.26-1.87,14.97-3.1,6.31-9.91,9.72-17.43,10.03Z"/>
      </g>
    </g>
  </g>
</svg>